REM DIRINDEX 1\2,1\3,1\4,1\5,1\6
REM DIRNAME "folder01","folder02","folder03","folder04","folder05","folder06"
TITLE ""
FILE "Disc6Track44.mp3" MP3
  TRACK 01 AUDIO
    TITLE "3:cjc161_11791"
    INDEX 01 00:00:00
  TRACK 02 AUDIO
    TITLE "4:cjc161_11792"
    INDEX 01 00:01:12
  TRACK 03 AUDIO
    TITLE "5:cjc161_11793"
    INDEX 01 00:04:02
  TRACK 04 AUDIO
    TITLE "6:cjc161_11794"
    INDEX 01 00:05:25
  TRACK 05 AUDIO
    TITLE "0:"
    INDEX 01 00:09:56
  TRACK 06 AUDIO
    TITLE "3:cjc161_11795"
    INDEX 01 00:10:11
  TRACK 07 AUDIO
    TITLE "4:cjc161_11796"
    INDEX 01 00:11:39
  TRACK 08 AUDIO
    TITLE "5:cjc161_11797"
    INDEX 01 00:12:35
  TRACK 09 AUDIO
    TITLE "6:cjc161_11798"
    INDEX 01 00:13:62
  TRACK 10 AUDIO
    TITLE "0:"
    INDEX 01 00:15:61
  TRACK 11 AUDIO
    TITLE "3:cjc161_11799"
    INDEX 01 00:16:17
  TRACK 12 AUDIO
    TITLE "4:cjc161_11800"
    INDEX 01 00:17:32
  TRACK 13 AUDIO
    TITLE "5:cjc161_11801"
    INDEX 01 00:19:63
  TRACK 14 AUDIO
    TITLE "6:cjc161_11802"
    INDEX 01 00:21:01
  TRACK 15 AUDIO
    TITLE "0:"
    INDEX 01 00:23:00
  TRACK 16 AUDIO
    TITLE "3:cjc161_11803"
    INDEX 01 00:23:31
  TRACK 17 AUDIO
    TITLE "4:cjc161_11804"
    INDEX 01 00:24:46
  TRACK 18 AUDIO
    TITLE "5:cjc161_11805"
    INDEX 01 00:26:23
  TRACK 19 AUDIO
    TITLE "6:cjc161_11806"
    INDEX 01 00:27:39
  TRACK 20 AUDIO
    TITLE "0:"
    INDEX 01 00:29:30
  TRACK 21 AUDIO
    TITLE "3:cjc161_11807"
    INDEX 01 00:29:61
  TRACK 22 AUDIO
    TITLE "4:cjc161_11808"
    INDEX 01 00:31:05
  TRACK 23 AUDIO
    TITLE "5:cjc161_11809"
    INDEX 01 00:33:14
  TRACK 24 AUDIO
    TITLE "6:cjc161_11810"
    INDEX 01 00:34:31
  TRACK 25 AUDIO
    TITLE "0:"
    INDEX 01 00:37:39
  TRACK 26 AUDIO
    TITLE "3:cjc161_11811"
    INDEX 01 00:37:68
  TRACK 27 AUDIO
    TITLE "4:cjc161_11812"
    INDEX 01 00:39:30
  TRACK 28 AUDIO
    TITLE "5:cjc161_11813"
    INDEX 01 00:40:31
  TRACK 29 AUDIO
    TITLE "0:"
    INDEX 01 00:41:72
  TRACK 30 AUDIO
    TITLE "3:cjc161_11814"
    INDEX 01 00:42:28
  TRACK 31 AUDIO
    TITLE "4:cjc161_11815"
    INDEX 01 00:43:40
  TRACK 32 AUDIO
    TITLE "5:cjc161_11816"
    INDEX 01 00:45:31
  TRACK 33 AUDIO
    TITLE "6:cjc161_11817"
    INDEX 01 00:46:40
  TRACK 34 AUDIO
    TITLE "0:"
    INDEX 01 00:48:23
  TRACK 35 AUDIO
    TITLE "3:cjc161_11818"
    INDEX 01 00:48:54
  TRACK 36 AUDIO
    TITLE "4:cjc161_11819"
    INDEX 01 00:49:64
  TRACK 37 AUDIO
    TITLE "5:cjc161_11820"
    INDEX 01 00:52:25
  TRACK 38 AUDIO
    TITLE "6:cjc161_11821"
    INDEX 01 00:53:32
  TRACK 39 AUDIO
    TITLE "0:"
    INDEX 01 00:55:52
  TRACK 40 AUDIO
    TITLE "3:cjc161_11822"
    INDEX 01 00:56:07
  TRACK 41 AUDIO
    TITLE "4:cjc161_11823"
    INDEX 01 00:57:26
  TRACK 42 AUDIO
    TITLE "5:cjc161_11824"
    INDEX 01 00:58:19
  TRACK 43 AUDIO
    TITLE "6:cjc161_11825"
    INDEX 01 00:59:37
  TRACK 44 AUDIO
    TITLE "0:"
    INDEX 01 01:01:53
  TRACK 45 AUDIO
    TITLE "3:cjc161_11826"
    INDEX 01 01:02:09
  TRACK 46 AUDIO
    TITLE "4:cjc161_11827"
    INDEX 01 01:03:23
  TRACK 47 AUDIO
    TITLE "5:cjc161_11828"
    INDEX 01 01:05:59
  TRACK 48 AUDIO
    TITLE "6:cjc161_11829"
    INDEX 01 01:06:72
  TRACK 49 AUDIO
    TITLE "0:"
    INDEX 01 01:09:47
  TRACK 50 AUDIO
    TITLE "3:cjc161_11830"
    INDEX 01 01:10:03
  TRACK 51 AUDIO
    TITLE "4:cjc161_11831"
    INDEX 01 01:11:42
  TRACK 52 AUDIO
    TITLE "5:cjc161_11832"
    INDEX 01 01:16:04
  TRACK 53 AUDIO
    TITLE "6:cjc161_11833"
    INDEX 01 01:17:38
  TRACK 54 AUDIO
    TITLE "0:"
    INDEX 01 01:20:49
  TRACK 55 AUDIO
    TITLE "3:cjc161_11834"
    INDEX 01 01:21:01
  TRACK 56 AUDIO
    TITLE "4:cjc161_11835"
    INDEX 01 01:22:42
  TRACK 57 AUDIO
    TITLE "5:cjc161_11836"
    INDEX 01 01:25:01
  TRACK 58 AUDIO
    TITLE "0:"
    INDEX 01 01:26:41
  TRACK 59 AUDIO
    TITLE "3:cjc161_11837"
    INDEX 01 01:26:69
  TRACK 60 AUDIO
    TITLE "4:cjc161_11838"
    INDEX 01 01:28:11
  TRACK 61 AUDIO
    TITLE "5:cjc161_11839"
    INDEX 01 01:31:52
  TRACK 62 AUDIO
    TITLE "6:cjc161_11840"
    INDEX 01 01:32:67
  TRACK 63 AUDIO
    TITLE "0:"
    INDEX 01 01:36:20
  TRACK 64 AUDIO
    TITLE "3:cjc161_11841"
    INDEX 01 01:36:49
  TRACK 65 AUDIO
    TITLE "4:cjc161_11842"
    INDEX 01 01:38:01
  TRACK 66 AUDIO
    TITLE "5:cjc161_11843"
    INDEX 01 01:40:08
  TRACK 67 AUDIO
    TITLE "0:"
    INDEX 01 01:41:35
  TRACK 68 AUDIO
    TITLE "3:cjc161_11844"
    INDEX 01 01:41:70
  TRACK 69 AUDIO
    TITLE "4:cjc161_11845"
    INDEX 01 01:43:08
  TRACK 70 AUDIO
    TITLE "5:cjc161_11846"
    INDEX 01 01:44:22
  TRACK 71 AUDIO
    TITLE "6:cjc161_11847"
    INDEX 01 01:45:35
  TRACK 72 AUDIO
    TITLE "0:"
    INDEX 01 01:49:42
  TRACK 73 AUDIO
    TITLE "3:cjc161_11848"
    INDEX 01 01:49:74
  TRACK 74 AUDIO
    TITLE "4:cjc161_11849"
    INDEX 01 01:51:22
  TRACK 75 AUDIO
    TITLE "5:cjc161_11850"
    INDEX 01 01:52:23
  TRACK 76 AUDIO
    TITLE "6:cjc161_11851"
    INDEX 01 01:53:46
  TRACK 77 AUDIO
    TITLE "0:"
    INDEX 01 01:55:41
